<svg xmlns="http://www.w3.org/2000/svg" width="114.772" height="137.936" viewBox="0 0 114.772 137.936">
  <defs>
    <style>
      .cls-1 {
        fill: #fff;
      }

      .cls-2 {
        fill: #735645;
      }
    </style>
  </defs>
  <g transform="translate(-936.284 -464.88)">
    <path id="HautDeFrance" class="cls-1" d="M946.766,478.994l6.351-4.616,28.282-7.753,5.068,8.266v7.482l9.473,7.06,5.551-4.586h5.611l3.076,3.922,2.836,11.463,3.5,1.569,2.474-1.931,6.607,3.861,2.111,7.482,13.877-.362,4.947,4.766,1.976,10.317-2.715,6.154,3.259,1.268.482,13.213-6.667,6.049v16.834l-6.456-2.052-8.567,5.43,3.2,8.628-5.49,3.2,2.293,6.758-6.938,9.322-12.912-9.322v-5.581l-3.379-1.177-7.361,2.685-3.68-1.508-2.9,1.931-15.777-6.7h-7.542l-4.827-1.328-5.672,2.353-6.093-3.481,2.9-4.061-2.9-8.447,1.448-7.3-1.448-5.913,3.318-7.663-3.318-7.542-12.369-10.679,7.119-8.326-1.87-4.721,3.741-4.344-2.534-4.585,2.111-5.672Z"/>
    <path id="HautDeFrance_-_Contour" data-name="HautDeFrance - Contour" class="cls-2" d="M982.088,464.88l5.878,9.587v7.152l7.925,5.906,5.059-4.18h6.881l3.725,4.749,2.738,11.066,2.009.9,2.563-2,8.008,4.68,1.959,6.942,13.339-.348,5.742,5.532,2.153,11.245-2.271,5.147,2.716,1.057.544,14.9-6.691,6.071V571.5l-7.744-2.461-6.951,4.406,3.214,8.672-5.521,3.215,2.152,6.342-8.292,11.139-14.733-10.636V586.9l-1.867-.65-7.4,2.7-3.479-1.426-2.906,1.938-16.241-6.894h-7.439l-4.526-1.245-5.876,2.438-8.172-4.669,3.411-4.784-2.776-8.1,1.462-7.371-1.489-6.08,3.259-7.525-2.918-6.633-13.243-11.433,7.5-8.774-1.871-4.725,3.652-4.241-2.363-4.275,2.255-6.057-.2-20.858,7.2-5.231.264-.072Zm2.878,10.434-4.258-6.945-26.932,7.383-5.5,4,.192,19.867-1.968,5.286,2.706,4.9-3.83,4.448,1.869,4.718-6.736,7.879,11.5,9.925,3.719,8.451-3.378,7.8,1.407,5.746L952.314,566l3.015,8.794-2.38,3.338,4.014,2.293,5.468-2.268,5.129,1.411H975.2l15.313,6.5,2.887-1.924,3.88,1.59,7.318-2.669,4.891,1.7v5.88l11.092,8.007,5.585-7.5-2.434-7.173,5.46-3.18-3.181-8.583,10.183-6.454,5.168,1.642V551.953l6.643-6.027-.421-11.53-3.8-1.479,3.159-7.161-1.8-9.39-4.152-4-14.415.376-2.264-8.022-5.207-3.043-2.384,1.861-4.991-2.238-2.934-11.861-2.427-3.094h-4.342l-6.043,4.992-11.02-8.213Z"/>
  </g>
</svg>
